<svg xmlns="http://www.w3.org/2000/svg" width="1280" height="720" viewBox="0 0 1280 720" role="img" aria-label="Munder Difflin office floor — a busy agent session">
  <defs>
    <linearGradient id="sky" x1="0" y1="0" x2="0" y2="1">
      <stop offset="0" stop-color="#1A0A0E"/>
      <stop offset="1" stop-color="#2A1014"/>
    </linearGradient>
    <pattern id="floor" width="48" height="48" patternUnits="userSpaceOnUse">
      <rect width="48" height="48" fill="#E5C896"/>
      <rect width="24" height="24" fill="#C9A66B"/>
      <rect x="24" y="24" width="24" height="24" fill="#C9A66B"/>
    </pattern>
    <style>
      .px   { font-family: "Press Start 2P", monospace; fill: #F4F1EA; }
      .mono { font-family: "VT323", "DejaVu Sans Mono", monospace; }
    </style>
  </defs>

  <rect width="1280" height="720" fill="url(#sky)"/>

  <!-- office floor card -->
  <g>
    <rect x="40" y="40" width="1200" height="640" fill="#1A1320" stroke="#4A0D17" stroke-width="8"/>
    <rect x="56" y="56" width="1168" height="608" fill="url(#floor)"/>

    <!-- rooms -->
    <g opacity="0.96">
      <rect x="90" y="96" width="520" height="250" fill="#FFF8E7" stroke="#8B6F47" stroke-width="6"/>
      <rect x="660" y="96" width="520" height="250" fill="#FFF8E7" stroke="#8B6F47" stroke-width="6"/>
      <rect x="90" y="392" width="1090" height="232" fill="#FFF8E7" stroke="#8B6F47" stroke-width="6"/>
    </g>

    <!-- signposts -->
    <g class="mono" font-size="22" fill="#1A1320">
      <text x="110" y="128">project: harness</text>
      <text x="680" y="128">project: web</text>
      <text x="110" y="424">Michael's office · GOD</text>
    </g>

    <!-- desks + tiny avatars -->
    <g>
      <!-- agent A -->
      <rect x="150" y="210" width="60" height="36" fill="#C9A66B" stroke="#1A1320" stroke-width="3"/>
      <rect x="166" y="178" width="24" height="30" fill="#FF6B6B" stroke="#1A1320" stroke-width="3"/>
      <rect x="170" y="170" width="16" height="12" fill="#E8C39E" stroke="#1A1320" stroke-width="3"/>
      <!-- agent B -->
      <rect x="430" y="210" width="60" height="36" fill="#C9A66B" stroke="#1A1320" stroke-width="3"/>
      <rect x="446" y="178" width="24" height="30" fill="#4ECDC4" stroke="#1A1320" stroke-width="3"/>
      <rect x="450" y="170" width="16" height="12" fill="#E8C39E" stroke="#1A1320" stroke-width="3"/>
      <!-- agent C -->
      <rect x="760" y="210" width="60" height="36" fill="#C9A66B" stroke="#1A1320" stroke-width="3"/>
      <rect x="776" y="178" width="24" height="30" fill="#FFD93D" stroke="#1A1320" stroke-width="3"/>
      <rect x="780" y="170" width="16" height="12" fill="#E8C39E" stroke="#1A1320" stroke-width="3"/>
      <!-- god agent -->
      <rect x="150" y="500" width="64" height="40" fill="#6E1423" stroke="#1A1320" stroke-width="3"/>
      <rect x="168" y="466" width="26" height="32" fill="#B197FC" stroke="#1A1320" stroke-width="3"/>
      <rect x="172" y="456" width="18" height="13" fill="#E8C39E" stroke="#1A1320" stroke-width="3"/>
      <text x="160" y="492" class="px" font-size="9" fill="#F4D35E">GOD</text>
    </g>

    <!-- flying envelopes -->
    <g>
      <g transform="translate(300 196) rotate(-12)">
        <rect width="34" height="22" fill="#FFEC99" stroke="#1A1320" stroke-width="3"/>
        <path d="M0 0 L17 13 L34 0" fill="none" stroke="#1A1320" stroke-width="3"/>
      </g>
      <g transform="translate(600 230) rotate(10)">
        <rect width="34" height="22" fill="#B4E5BD" stroke="#1A1320" stroke-width="3"/>
        <path d="M0 0 L17 13 L34 0" fill="none" stroke="#1A1320" stroke-width="3"/>
      </g>
    </g>
  </g>

  <!-- live terminal overlay -->
  <g transform="translate(700 392)">
    <rect width="460" height="220" fill="#0c0608" stroke="#4A0D17" stroke-width="6"/>
    <g class="mono" font-size="21" fill="#d7c9a8">
      <text x="20" y="44"><tspan fill="#4ECDC4">god@munder-difflin</tspan>:<tspan fill="#F4D35E">~</tspan>$ assign "ship it"</text>
      <text x="20" y="78" fill="#B9A9AC">&#8594; route &#8594; agent.coder</text>
      <text x="20" y="112" fill="#B9A9AC">&#8594; recalled 4 memories (12ms)</text>
      <text x="20" y="146" fill="#B9A9AC">&#8594; agent.coder &#9993; agent.qa</text>
      <text x="20" y="180"><tspan fill="#6BCF7F">&#10003;</tspan> done · 3 agents · 0 escalations</text>
    </g>
  </g>

  <!-- play affordance -->
  <g transform="translate(640 360)" opacity="0.92">
    <circle r="56" fill="#F4D35E" stroke="#4A0D17" stroke-width="8"/>
    <path d="M-18 -28 L34 0 L-18 28 Z" fill="#1A0A0E"/>
  </g>
</svg>
